<?xml version="1.0" encoding="utf-8"?>
<!-- Generator: Adobe Illustrator 25.0.1, SVG Export Plug-In . SVG Version: 6.00 Build 0)  -->
<svg version="1.1" id="Layer_1" xmlns="http://www.w3.org/2000/svg" xmlns:xlink="http://www.w3.org/1999/xlink" x="0px" y="0px"
	 viewBox="0 0 1960.4 395.4" style="enable-background:new 0 0 1960.4 395.4;" xml:space="preserve">
<style type="text/css">
	.st0{fill:#D80034;}
	.st1{fill:#2D2B5C;}
	.st2{font-family:'MyriadPro-Regular';}
	.st3{font-size:47.0734px;}
	.st4{font-family:'Cambria-Bold';}
	.st5{font-size:134.6614px;}
	.st6{letter-spacing:3.1;}
</style>
<path class="st0" d="M0,395.4V1.8c6.2-2,349.9-2.5,359.5-0.4v394H0z M180.1,181.2c-1.3,0.5-1.7,0.5-1.8,0.7c-0.6,1.3-1.2,2.6-1.6,4
	c-6.8,24.2-19.2,43.9-38.6,57.8c-3.2,2.3-4.1,5.2-4.1,9.1c0.1,28.1,0,56.1,0.1,84.2c0,7.3,0.2,7.5,6.3,9.5c11.1,3.6,22.4,5.9,34,5.9
	c1.9-0.2,3.8-0.5,5.7-1L180.1,181.2z M242.3,186.9l-1.9-0.1c-0.5,1.3-1.1,2.6-1.7,4c-8.1,21.4-20.2,39.3-37.8,52.3
	c-3.4,2.5-4.4,5.5-4.4,9.8c0.1,30.5,0.1,60.9,0.1,91.3c0.1,2.2,0.4,4.4,0.8,6.5c13.2-0.6,25-5.5,36.8-10.2c6.2-2.5,8.8-6.3,8.7-13.9
	c-0.3-43.7-0.1-87.4-0.2-131.1C242.8,192.6,242.5,189.7,242.3,186.9z M197.5,64.1c-1.8,15.1-1.2,153.5,0.6,160.6
	c1.9-1.4,4-2.3,5.3-3.9c5.1-6.3,10.6-12.4,14.6-19.5c13.3-23.2,16.8-49,13.5-75.7c-2.5-20.5-10-38.8-24.1-53.2
	C204.7,69.5,201.5,67.3,197.5,64.1z M135.6,226c2.4-2,4.6-3.5,6.5-5.4c8.5-8.5,14.9-19,18.7-30.5c9.5-27.4,9.2-54.8-0.9-82
	c-4.4-11.9-11-22.3-20.2-30.4c-1.3-1.1-3.1-1.6-4.9-2.4C133.2,88.4,133.8,218.5,135.6,226z M299.3,276.8c30.1-47,26.2-124.1-4-164
	c5.8,20.4,7.7,39.4,4.8,58.6c-3,20-13.3,35.9-25.9,50.2L299.3,276.8z M60.7,117.2c-31,46.8-27.3,123.4-0.1,160.2
	C62.4,270.8,62.7,127,60.7,117.2z M259.5,212.2c2-0.8,2.8-0.9,3.4-1.4c1.7-1.5,3.3-3.2,4.8-4.9c16.8-20.5,22-44.7,17.9-71.4
	c-2.5-15.9-8.8-29.7-19.5-40.9c-1.6-1.7-3.7-2.8-6.6-5V212.2z M117.5,252.4l-41.7,49.7c11.6,13.9,24.6,25.8,41.7,33.8L117.5,252.4z
	 M117.5,136.7c0.4-25.3,1.1-50.4,0.2-75.7c-12.2,2.8-36,22.6-41.7,34.2C102.8,112.3,100.1,106.9,117.5,136.7L117.5,136.7z
	 M138.5,50.8c3.8,5,7.8,10.2,11.8,15.5c4.2,5.6,8.8,10.9,12.5,16.8c3.6,5.8,6.6,11.8,9.2,18.1c2.6,6.3,4.5,13,6.7,19.6l2-0.4V94.7
	c0-8.5,0.2-16.9-0.1-25.4s1-17.3-1-25.4C166.7,42.2,145.8,46.2,138.5,50.8L138.5,50.8z M259.6,323c1.4-0.2,2.4,0,2.9-0.4
	c8.1-8.1,16.2-16.2,24.2-24.4c2.8-2.9,1.5-5.9,0.1-9.1c-7.8-17.3-15.4-34.7-23.2-52c-0.7-1.6-2-2.8-3.9-5.3L259.6,323z M78.4,279.1
	c14.9-5.7,25.2-23.3,24.3-40.1s-11.6-33-24.3-36.3V279.1z M78.5,187.5c13.8-4,24.8-21.1,24.5-37.2c-0.4-16.4-11.3-32.2-24.5-34.7
	V187.5z M241.3,97.8c0.3-0.3,1-0.7,1-1.1c0.1-11.1,0.4-22.2,0.1-33.3c-0.4-2.5-1.9-4.6-4.1-5.8c-10.2-4.1-20.7-7.6-31-11.1
	c-0.8-0.3-1.9,0.3-3.2,0.6c7.4,8,15,15,21,23.2C231.3,78.8,236,88.6,241.3,97.8z M116.6,223.9c2.6-16.7,1.9-52.6-0.2-58.5
	c-2.7,5.3-5,10.8-8.2,15.6c-3.3,4.9-7.5,9.2-11.7,14.2C105.7,202.7,112.6,212.6,116.6,223.9z"/>
<path class="st1" d="M1837.3,122.2c15.2,16.3,26.4,35.4,38.7,53.5c8.8,13,17.6,26.1,26.7,39.5h-90.4l-52.6-93.7l-1.6,0.5
	c-0.1,2.8-0.4,5.6-0.4,8.5c0,18.3,0,36.7,0,55c0,16.6,0,16.6,6.7,29.7H1585c8.8-18.4-2.6-32.6-6.5-48.7h-67.9
	c-8.4,15.7-11.8,30.4-11.1,48.6h-43.8c13.9-13.7,18.5-31.2,24.9-47.7c14.6-37.6,29-75.3,43.7-112.9c4.1-10.6,8.5-20.9-0.9-32.2
	c3.8-0.4,5.8-0.9,7.9-0.9c20.9,0,41.8,0.2,62.7-0.2c5.6-0.1,8.2,1.9,10.3,7.5c21.6,56.8,43.4,113.6,65.4,170.3
	c1,2.7,1.9,5.7,3.7,7.8c1.4,1.7,4.2,3.1,6.1,2.9c1.4-0.2,3-3.1,3.6-5.1c0.7-2.5,0.4-5.3,0.4-7.9c0-47.6,0-95.2,0.1-142.7
	c0-11.2-0.8-21.9-9.4-31.3c2.9-0.6,4.6-1.2,6.3-1.2c44.5,0,89-0.3,133.6,0.2c9.1,0.1,18.1,1.6,26.8,4.3c19.7,6.2,30,21.1,31.1,42.9
	c1.2,22.2-9,41.1-26.8,49.6C1842.5,119.7,1840.1,120.9,1837.3,122.2z M1758.7,43.7V115c4.4,0,8.2,0.2,12,0
	c14.3-0.7,24.3-9.4,28-24.2c2.2-9.2,2.2-18.8-0.2-28c-2.2-9-7.5-14.9-15.8-17.6C1775,42.6,1767.1,43.2,1758.7,43.7z M1570,142.3
	c-8-24.5-16.3-47.8-25.5-71.1c-9.2,23.6-18,46.9-25.9,71.1H1570z"/>
<path class="st1" d="M750,219.8c-15-0.5-28.9-1.7-42.5-5.9c-42.4-13.1-68-49.9-67.3-97.4c0.7-40.8,18.9-70,52.8-86.7
	c37.5-18.4,76.1-18.1,113.4,0.2c34.1,16.8,51.7,46.6,52,87.2c0.1,9.7-0.8,19.5-2.8,29c-5.7,26.6-20.3,46-42.8,58.7
	C792.9,216.2,771.3,219.6,750,219.8z M787.7,118.8c-1.8-14.9-2.9-29.9-5.5-44.6c-1.5-7.7-4.5-15.1-8.7-21.7
	c-12.2-19.1-37-18.4-48.1,1.4c-4.2,7.7-7.1,16-8.8,24.6c-4.9,23.6-4.8,47.5-1.4,71.3c1.9,13.2,5.4,26,13.4,36.7
	c12.3,16.3,32.9,16,44.3-1.1c3.6-5.4,6.1-11.9,8.1-18.2C786,151.5,786.4,135.2,787.7,118.8L787.7,118.8z"/>
<path class="st1" d="M955.5,144.5v41c0,15.5,0,15.5,7.3,28.2c-5.1,2-75,2.8-88.6,0.8c1.1-1.9,2-3.6,3-5.3c3.2-5.3,4.8-11.4,4.7-17.5
	c-0.1-48.7-0.1-97.4,0-146.1c0-8.8-3-16-8.2-23.6c2.3-0.4,4.6-0.7,6.8-0.8c34,0,68.1-0.3,102.1,0.1c10.9,0.1,22,1,32.6,3.7
	c34.3,8.6,45.5,34.6,41.9,67.2c-3,27.2-19.6,45-46.3,50c-9.9,1.9-20.2,1.8-30.3,2.2C972.7,144.7,964.8,144.5,955.5,144.5z
	 M955.9,123.1c21.4,2.6,32.7-8.6,35.5-26.4c1.9-10.8,1.5-21.8-1-32.5c-4.2-16.9-18.1-25.3-34.5-20.7L955.9,123.1z"/>
<path class="st1" d="M441.1,22.3c0.9-0.4,1.8-0.7,2.7-1c41.7,0.3,83.4,0.2,125.1,1.1c8,0.2,16.3,2.8,24,5.8
	c19.7,7.7,30.7,23.5,32.3,45.8c0.6,8.8,0,17.7-1.7,26.3c-3.2,15.9-12.2,27.5-25.7,34.9c-10.7,5.8-22.7,9-34.9,9.1
	c-10.2,0.2-20.3,0.1-30.5,0.1c-2.7,0-5.4,0.3-8.5,0.4c-0.2,2.8-0.6,5-0.6,7.3c-0.1,10.3,0.2,20.7-0.1,31c-0.2,11-0.2,21.9,9.1,31.5
	H443c-0.1-0.3-0.5-1-0.4-1.3c6.1-8.4,7.3-17.9,7.2-28.3c-0.3-43.1-0.2-86.2-0.1-129.3C449.8,44,450.6,32.1,441.1,22.3z M523.9,43.1
	v79.7c18.3,3.3,30.7-5.3,34.9-23.7c2.2-10.1,2.3-20.6,0.4-30.7C555.6,48.5,543.7,39.9,523.9,43.1z"/>
<path class="st1" d="M1071.8,21.9h90.3c-0.7,1.6-1.4,3.1-2.2,4.6c-3.3,5.2-5,11.3-4.9,17.5c0,33.1-0.2,66.1,0.2,99.2
	c0.3,25.6,15.2,41.7,39,43.3c26.7,1.7,45.1-16.2,45.4-44.9c0.3-32.8,0-65.6,0.3-98.3c0.1-7.8-3.1-14-7.2-21.1h42.4
	c0.1,0.5,0.5,1.2,0.3,1.5c-6.3,8.2-7.7,17.9-7.6,28.2c0.2,28.7,0,57.3-0.3,85.9c-0.1,8.2-0.6,16.6-2.6,24.5
	c-6.8,27.6-23.3,45.9-49.1,53.2c-26.2,7.4-52.8,7.7-79-0.2c-8.2-2.5-16-6.2-23.2-10.9c-21.1-13.8-31.8-34.5-32-61.1
	c-0.2-29.8-0.3-59.7,0-89.5C1081.6,42.5,1080.8,31.9,1071.8,21.9z"/>
<path class="st1" d="M1290.4,215.4c8-9.1,9-18.5,9-28.5c-0.2-44.3-0.2-88.7,0-133c0-11.1,0.1-21.9-8-30.7c6.7-2,78.7-2.4,89.2-0.6
	c-1.2,1.9-2.4,3.3-3,5c-1.7,4.9-4.5,9.9-4.5,14.8c-0.3,47-0.2,94-0.2,141c0.1,1.3,0.3,2.6,0.5,4c2.5,0.2,4.9,0.6,7.3,0.6
	c15.7,0,31.3-0.1,47,0c12.1,0.1,23.5-2.1,33.4-10.7c0,6-7.4,25.8-14.2,38.2L1290.4,215.4z"/>
<g>
	<path class="st1" d="M1897.8,185.3c0.2-16.8,12.9-29.6,29.4-29.4c16.1,0.1,29.2,13.7,29.1,30c-0.1,16.1-13.6,29.6-29.7,29.4
		C1910.2,215.1,1897.6,202,1897.8,185.3z M1951.1,185.8c0.1-13.9-10.6-24.6-24.5-24.5c-13.6,0.1-23.9,10.4-23.8,24.1
		c0,14,10.6,24.6,24.5,24.5C1940.9,209.7,1951.1,199.4,1951.1,185.8z"/>
	<text transform="matrix(1.1505 0 0 1 1913.1976 200.4761)" class="st1 st2 st3">R</text>
</g>
<text transform="matrix(0.9805 0 0 1 434.4888 356.1803)" class="st1 st4 st5 st6">INTERNAL TOOLS</text>
</svg>
