<svg xmlns="http://www.w3.org/2000/svg" viewBox="0 0 1896 386.91"><defs><style>.a{fill:#d80034;}.b,.c{fill:#2d2b5c;}.c{font-size:100px;font-family:PerpetuaTitlingMT-Bold, Perpetua Titling MT;font-weight:700;letter-spacing:0.03em;}.d{letter-spacing:0.01em;}.e{letter-spacing:0.02em;}.f{letter-spacing:0.01em;}.g{letter-spacing:0.03em;}</style></defs><path class="a" d="M20,635V249.85c6.24-2,349.88-2.47,359.45-.43V635ZM200.14,425.44c-1.32.47-1.7.48-1.79.65a28.31,28.31,0,0,0-1.65,3.9c-6.77,23.69-19.21,42.94-38.62,56.59-3.25,2.29-4.07,5.06-4.06,8.87.07,27.45,0,54.91.06,82.36,0,7.11.17,7.33,6.34,9.3,11.09,3.53,22.39,5.81,34,5.75a35.9,35.9,0,0,0,5.71-1ZM262.26,431l-1.88-.06c-.55,1.29-1.15,2.56-1.66,3.87-8.05,20.95-20.22,38.43-37.83,51.16-3.43,2.47-4.4,5.42-4.39,9.59.11,29.8.05,59.59.1,89.39a51.38,51.38,0,0,0,.84,6.4c13.23-.61,25-5.36,36.81-9.95,6.23-2.41,8.8-6.15,8.74-13.64-.32-42.77-.15-85.55-.18-128.32C262.81,436.58,262.45,433.76,262.26,431ZM217.5,310.83c-1.84,14.77-1.23,150.19.62,157.13,1.88-1.33,4-2.22,5.31-3.85C228.48,457.91,234,452,238,445c13.31-22.72,16.79-47.92,13.48-74.11-2.54-20.08-10-38-24.1-52.1C224.7,316.13,221.49,314,217.5,310.83ZM155.64,469.28c2.38-1.91,4.6-3.41,6.51-5.28a76.56,76.56,0,0,0,18.72-29.82q14.19-40.29-.91-80.29c-4.4-11.69-11-21.8-20.18-29.7-1.3-1.12-3.13-1.53-4.91-2.37C153.24,334.6,153.76,461.94,155.64,469.28ZM319.32,519c30.1-45.95,26.25-121.43-4-160.44,5.84,20,7.74,38.56,4.84,57.38-3,19.6-13.29,35.13-25.91,49.1ZM80.67,362.75c-30.95,45.8-27.3,120.74-.1,156.77C82.41,513.06,82.7,372.34,80.67,362.75Zm198.8,93c2-.77,2.84-.87,3.39-1.37a49.63,49.63,0,0,0,4.81-4.81c16.76-20.1,22-43.71,17.87-69.9-2.45-15.52-8.79-29.11-19.5-40.07-1.61-1.66-3.69-2.78-6.57-4.9ZM137.54,495.11,95.86,543.73c11.64,13.65,24.6,25.23,41.68,33.06Zm0-113.26c.42-24.73,1.06-49.32.25-74.1-12.21,2.75-36,22.15-41.73,33.5C122.8,358,120.05,352.67,137.49,381.85Zm20.93-84c3.77,4.86,7.78,10,11.77,15.2,4.2,5.45,8.75,10.64,12.47,16.46a121,121,0,0,1,9.21,17.73c2.64,6.18,4.5,12.75,6.7,19.15l2-.39V340.76c0-8.27.16-16.55-.05-24.81s1-16.89-1-24.89C186.67,289.43,165.75,293.33,158.42,297.88ZM279.6,564.2c1.35-.17,2.39,0,2.86-.41q12.18-11.85,24.22-23.85c2.83-2.82,1.5-5.81.09-8.86-7.77-16.94-15.44-33.93-23.23-50.85-.7-1.54-2-2.73-3.94-5.18ZM98.45,521.26c14.92-5.58,25.19-22.77,24.28-39.2s-11.58-32.29-24.28-35.51Zm.09-89.69c13.8-3.91,24.85-20.68,24.46-36.39-.4-16.05-11.32-31.52-24.46-34Zm162.78-87.76c.29-.3,1-.69,1-1.08.15-10.85.44-21.71.12-32.55a7.85,7.85,0,0,0-4.06-5.69c-10.24-4-20.66-7.39-31-10.88-.82-.27-1.89.31-3.24.58,7.38,7.86,15,14.63,21,22.73C251.3,325.23,256,334.83,261.32,343.81ZM136.58,467.17c2.57-16.31,1.93-51.44-.18-57.21-2.74,5.18-5,10.56-8.21,15.23-3.31,4.84-7.48,9-11.65,13.92A63.41,63.41,0,0,1,136.58,467.17Z" transform="translate(-20 -248.09)"/><path class="b" d="M1850.62,369.92c15.24,16.34,26.42,35.36,38.73,53.45,8.85,13,17.59,26.11,26.65,39.55h-90.4L1773,369.24l-1.59.52c-.14,2.83-.39,5.65-.39,8.48q-.06,27.48,0,55c0,16.59,0,16.59,6.66,29.72h-179.4c8.82-18.38-2.58-32.65-6.54-48.67h-67.92c-8.41,15.68-11.77,30.36-11.08,48.65h-43.83c13.91-13.69,18.54-31.23,24.95-47.71,14.63-37.59,29-75.29,43.67-112.87,4.13-10.58,8.49-20.94-.93-32.24,3.75-.44,5.82-.9,7.89-.91,20.88-.05,41.77.19,62.65-.17,5.61-.1,8.15,1.9,10.27,7.46q32.44,85.27,65.41,170.31c1,2.72,1.91,5.74,3.67,7.84,1.42,1.69,4.15,3.13,6.12,2.9,1.4-.16,3-3.12,3.6-5.14.68-2.47.44-5.26.44-7.92,0-47.58,0-95.16.06-142.74,0-11.17-.84-21.91-9.37-31.3,2.92-.58,4.63-1.22,6.34-1.22,44.52-.05,89-.26,133.56.17A93.35,93.35,0,0,1,1854,273.7c19.68,6.2,30,21.11,31.1,42.88,1.16,22.18-9,41.07-26.76,49.65C1855.86,367.42,1853.39,368.59,1850.62,369.92ZM1772,291.39v71.34c4.38,0,8.19.17,12,0,14.26-.74,24.3-9.41,28-24.18a57.76,57.76,0,0,0-.15-28c-2.18-9-7.46-14.92-15.78-17.65C1788.32,290.31,1780.46,290.89,1772,291.39ZM1583.33,390c-8-24.46-16.3-47.82-25.53-71.13-9.16,23.59-18,46.86-25.94,71.13Z" transform="translate(-20 -248.09)"/><path class="b" d="M770,467.91c-15-.45-28.9-1.68-42.5-5.9-42.39-13.15-68-49.94-67.28-97.39.65-40.75,18.87-70.05,52.85-86.71,37.45-18.36,76.07-18.14,113.42.23,34.08,16.76,51.65,46.6,52,87.21a135.08,135.08,0,0,1-2.83,29c-5.66,26.61-20.35,46-42.81,58.69C812.86,464.26,791.28,467.69,770,467.91Zm37.73-101.05c-1.76-14.89-2.86-29.92-5.54-44.62a62.24,62.24,0,0,0-8.7-21.72c-12.2-19.09-37-18.43-48.14,1.35a86.17,86.17,0,0,0-8.78,24.59c-4.88,23.57-4.82,47.48-1.37,71.29,1.91,13.2,5.36,26,13.4,36.67,12.32,16.32,32.92,16,44.29-1.09,3.6-5.41,6.11-11.87,8.13-18.21C806,399.56,806.38,383.27,807.75,366.86Z" transform="translate(-20 -248.09)"/><path class="b" d="M975.5,392.56v41c0,15.5,0,15.5,7.28,28.22-5.11,2-75,2.75-88.59.79,1.07-1.93,1.95-3.64,2.95-5.27a32.43,32.43,0,0,0,4.7-17.54q-.15-73.06,0-146.14c0-8.77-3-16-8.19-23.63a65,65,0,0,1,6.85-.83c34.05,0,68.09-.31,102.13.14,10.9.15,22.05,1.05,32.64,3.72,34.28,8.62,45.52,34.56,41.89,67.24-3,27.2-19.56,45-46.3,50-9.92,1.88-20.19,1.76-30.31,2.18C992.68,392.82,984.75,392.56,975.5,392.56Zm.43-21.34c21.37,2.57,32.67-8.61,35.48-26.41a81.07,81.07,0,0,0-1-32.46c-4.23-16.9-18.13-25.31-34.5-20.75Z" transform="translate(-20 -248.09)"/><path class="b" d="M461.13,270.39a19.28,19.28,0,0,1,2.69-1c41.71.27,83.42.25,125.12,1.09,8,.16,16.31,2.77,23.95,5.78,19.66,7.74,30.67,23.45,32.34,45.83a98.92,98.92,0,0,1-1.72,26.32c-3.17,15.87-12.23,27.49-25.68,34.93a74.41,74.41,0,0,1-34.89,9.09c-10.16.22-20.32.06-30.47.13-2.68,0-5.36.27-8.5.43-.23,2.75-.56,5-.57,7.29-.06,10.33.15,20.67-.08,31-.25,11-.2,21.91,9.09,31.51H463c-.08-.28-.52-1-.35-1.28,6.06-8.38,7.26-17.93,7.19-28.32-.3-43.1-.19-86.2-.08-129.3C469.75,292.08,470.56,280.18,461.13,270.39Zm82.73,20.77v79.68c18.27,3.26,30.69-5.28,34.87-23.67a77.33,77.33,0,0,0,.4-30.72C575.62,296.56,563.65,288,543.86,291.16Z" transform="translate(-20 -248.09)"/><path class="b" d="M1085.07,269.55h90.34a48.68,48.68,0,0,1-2.25,4.56,31.69,31.69,0,0,0-4.92,17.51c0,33.07-.25,66.15.15,99.22.3,25.65,15.23,41.74,39,43.28,26.65,1.73,45.1-16.23,45.38-44.85.31-32.77,0-65.56.26-98.34.06-7.77-3.1-14.05-7.18-21.13h42.41c.11.46.52,1.23.33,1.47-6.32,8.24-7.66,17.86-7.61,28.21q.23,43-.31,85.94c-.11,8.2-.64,16.65-2.59,24.52-6.85,27.64-23.32,45.86-49.1,53.18-26.22,7.44-52.75,7.68-79-.2A91.09,91.09,0,0,1,1126.8,452c-21.1-13.81-31.84-34.5-32-61.09-.24-29.82-.28-59.66,0-89.48C1094.92,290.15,1094.15,279.54,1085.07,269.55Z" transform="translate(-20 -248.09)"/><path class="b" d="M1303.69,463.06c8-9.11,9-18.48,9-28.55q-.35-66.49,0-133c0-11.08.06-21.94-8-30.73,6.71-2,78.67-2.39,89.24-.65-1.15,1.85-2.43,3.28-3,5-1.73,4.88-4.5,9.86-4.53,14.82-.34,47-.2,94-.17,141a36.78,36.78,0,0,0,.53,3.95c2.54.21,4.92.57,7.3.58,15.66.05,31.33-.06,47,.05,12.1.08,23.53-2.14,33.41-10.69,0,6-7.36,25.75-14.2,38.24Z" transform="translate(-20 -248.09)"/><text class="c" transform="translate(441.44 358.62) scale(0.93 1)">INTER<tspan class="d" x="341.85" y="0">N</tspan><tspan class="e" x="428.97" y="0">AL </tspan><tspan class="f" x="610" y="0">T</tspan><tspan class="g" x="679.39" y="0">OOLS</tspan></text></svg>